<?xml version="1.0" encoding="utf-8"?>
<!-- Generator: Adobe Illustrator 23.0.1, SVG Export Plug-In . SVG Version: 6.00 Build 0)  -->
<svg version="1.1" id="Layer_1" xmlns="http://www.w3.org/2000/svg" xmlns:xlink="http://www.w3.org/1999/xlink" x="0px" y="0px"
	 viewBox="0 0 67 79" style="enable-background:new 0 0 67 79;" xml:space="preserve">
<style type="text/css">
	.st0{fill:#7DAED3;}
	.st1{fill:#FFFFFF;}
</style>
<g>
	<path class="st0" d="M44.45,26.6h0.1C44.55,26.6,44.55,26.6,44.45,26.6C44.55,26.6,44.45,26.6,44.45,26.6z"/>
	<path class="st0" d="M44.25,27.2L44.25,27.2v-0.5l0,0l0,0l0,0V27.2z"/>
	<rect x="44.25" y="26.7" class="st0" width="0" height="0.5"/>
	<path class="st0" d="M39.95,26.4L39.95,26.4L39.95,26.4L39.95,26.4z"/>
	<polygon class="st0" points="44.25,27.2 44.25,27.2 44.25,27.2 44.25,27.2 	"/>
</g>
<g>
	<path class="st1" d="M35.75,23.1c0.1,0.1,0.2,0.1,0.2,0.1c8.5-0.3,13.3,2.9,13.7,4.2l3.4-0.1l1.1-2.3c0.1-0.2,0-0.5,0-0.5
		c-1-1.1-9.5-3.6-19.8-3.6c-11,0-17.9,2.2-19.4,3.2c0,0-0.4,0.2-0.4,0.5c0,0.1,0.2,0.6,0.2,0.6l0.3,0.6c0.1,0.2,0.2,0.2,0.4,0
		c0,0,0.2-0.1,0.2-0.2s-0.1-0.4-0.1-0.4c-0.2-0.4,0.1-0.5,0.1-0.5l0.6-0.3c0.3-0.1,0.3,0.1,0.4,0.3c0,0,0.1,0.3,0.2,0.4
		c0.2,0.1,0.7-0.2,2.1-0.6c0.1,0,0.2,0,0.4-0.1c0.1-0.1,0-0.6,0-0.6c-0.1-0.2-0.2-0.5,0.4-0.6l0.9-0.2c0.4-0.1,0.5,0.1,0.5,0.4
		c0,0,0,0.4,0.1,0.5c0.1,0.2,0.3-0.1,3.2-0.4c0,0,0.4,0,0.5-0.2s0-0.5,0-0.5c0-0.3-0.2-0.6,0.5-0.6l1.2-0.1c0.9-0.2,0.8,0.2,0.8,0.5
		c0,0,0,0.4,0.1,0.4c0.1,0.1,0.4,0.1,0.4,0.1c1.6-0.2,2.5-0.2,4.2-0.2c0,0,0.2,0,0.3-0.1s0.1-0.2,0.1-0.2c0-0.2,0-0.5,0.1-0.6
		s0.4-0.1,0.6-0.1h1.4c0.2,0,0.7-0.1,0.8,0.1c0.1,0.1,0.1,0.7,0.1,0.7S35.75,23,35.75,23.1z"/>
	<path class="st1" d="M34.35,9.4c-8.3,0-13.3,2.7-16.6,5.8l-0.1,0.1c-0.1,0.2-0.1,0.4,0.3,0.3c7.1-3,14.8-1.1,17.3,1.7
		c0.1,0.1,0,0.2-0.1,0.2c-2.5,0-4.6-0.1-9.2,0.5c-2.5,0.4-4.7,0.7-6.6,1.2c-3.1,0.8-5.3,1.8-6.5,2.6c-0.4,0.2-0.5,0.4-0.6,0.6
		c-0.1,0.4-0.1,0.4-0.2,0.7c-0.2,0.5-0.2,0.8-0.3,1c-0.1,0.3,0.3,0.2,0.5,0c0.4-0.4,1.4-1.3,2.9-2s4-1.5,6.8-2
		c3.6-0.7,8.1-1.1,12.1-1.1c4.7,0,8.9,0.5,12.4,1.2c3.6,0.7,6.4,1.7,8.2,2.6c0.9,0.4,1.3,0.8,1.9,1.3c0.5,0.5,0.5,0.1,0.5-0.1
		c0,0-0.1-0.6-0.8-2C53.85,17.7,47.65,9.4,34.35,9.4"/>
	<g>
		<path class="st1" d="M34.85,70.6c-16.4,0-24.6-3.8-24.6-6l0,0v-2.1c0,0,0-0.1,0.1-0.1h0.1c7.1,5.4,23.9,6.1,31.2,3.7
			c0.2-0.1,0.3-0.2,0.3-0.2l-0.1-0.1c-0.2-0.1-0.3-0.1-0.5,0c-0.1,0-0.2,0-0.3,0c-11.5,1.2-23.6-1.1-27.7-4l-0.1-0.1v-2.5
			c0-0.1,0-0.1,0.1-0.1s0.1,0,0.1,0c0.5,0.5,2.6,1.5,6.6,2.3c3,0.6,7.9,1.4,14.4,1.4c9.8,0,18-1.8,20.2-3c0.5-0.3,0.8-0.5,0.8-0.6
			s0.1-0.1,0.1-0.1c0.1,0,0.1,0.1,0.1,0.1l0.1,1.5c2.5,0,3.4,0.1,3.5,0.7c0,0,0,0.1,0,0.2l0,0l0.1,2.9
			C59.45,66.7,50.75,70.6,34.85,70.6z"/>
	</g>
	<path class="st1" d="M44.55,25.4h-4.5c-0.2,0-0.3,0.1-0.3,0.3v0.5c0,0.2,0.1,0.3,0.3,0.3h1.4c0.1,0,0.2,0.1,0.2,0.1
		c0.1,0.1-0.2,0.3-0.3,0.3l-0.7,0.4c-0.1,0.1-0.2,0.2-0.2,0.4V60c0.1,0.6,1,0.6,2,0.6c0.8,0,1.8,0,1.9-0.6c0,0,0-30.8,0-33.4
		c0-0.1,0.1-0.2,0.1-0.2h0.2c0.2,0,0.3-0.1,0.3-0.3v-0.5C44.85,25.5,44.75,25.4,44.55,25.4z"/>
	<g>
		<path class="st1" d="M34.55,58.9c-1.4,0-2.8,0-2.9-0.1c-0.2-0.1-0.2-0.9-0.1-1.5c0,0,0-0.1,0.1-0.1l0.5-0.2v-6c0,0,0-0.1,0-0.3
			c0.1-0.2,0.2-0.3,0.3-0.3c0.4-0.3,1.3-0.9,1.8-1.2c0.1,0,0.1-0.1,0.1-0.1V49c0-0.1-0.2-0.1-0.3-0.1s-0.1,0-0.1,0
			c-0.1,0-0.2,0-1.4,0c0,0-0.2,0-0.4-0.1c-0.1,0-0.2-0.1-0.2-0.1l0,0l-0.4-0.9h-0.3h-0.1v-0.1v-0.2c0-0.1,0.1-0.1,0.1-0.1h6.3
			c0.1,0,0.1,0.1,0.1,0.1v0.2v0.1h-0.1h-0.2l-0.6,1.2v8l0.5,0.2l0.1,0.1c0.1,0.9,0.1,1.4-0.1,1.5C37.15,58.8,35.85,58.9,34.55,58.9z
			"/>
	</g>
	<path class="st1" d="M53.35,27.2h-4.5c-0.2,0-0.3,0.1-0.3,0.3V28c0,0.2,0.1,0.3,0.3,0.3h1.4c0.1,0,0.2,0.1,0.2,0.1
		c0.1,0.1-0.2,0.3-0.3,0.3l-0.7,0.4c-0.1,0.1-0.2,0.2-0.2,0.4v29.2c0.1,0.6,1,0.6,2,0.6c0.8,0,1.8,0,1.9-0.6c0,0,0-27.6,0-30.3
		c0-0.1,0.1-0.2,0.1-0.2h0.2c0.2,0,0.3-0.1,0.3-0.3v-0.5C53.65,27.3,53.55,27.2,53.35,27.2z"/>
	<path class="st1" d="M28.65,25.4h-4.5c-0.2,0-0.3,0.1-0.3,0.3v0.5c0,0.2,0.1,0.3,0.3,0.3h1.4c0.1,0,0.2,0.1,0.2,0.1
		c0.1,0.1-0.2,0.3-0.3,0.3l-0.7,0.4c-0.1,0.1-0.2,0.2-0.2,0.4V60c0.1,0.6,1,0.6,2,0.6c0.8,0,1.8,0,1.9-0.6c0,0,0-30.8,0-33.4
		c0-0.1,0.1-0.2,0.1-0.2h0.2c0.2,0,0.3-0.1,0.3-0.3v-0.5C28.95,25.5,28.85,25.4,28.65,25.4z"/>
	<path class="st1" d="M19.85,27.3h-4.5c-0.2,0-0.3,0.1-0.3,0.3v0.5c0,0.2,0.1,0.3,0.3,0.3h1.4c0.1,0,0.2,0.1,0.2,0.1
		c0.1,0.1-0.2,0.3-0.3,0.3l-0.7,0.4c-0.1,0.1-0.2,0.2-0.2,0.4v29.2c0.1,0.6,1,0.6,2,0.6c0.8,0,1.8-0.1,1.9-0.6c0,0,0-27.6,0-30.3
		c0-0.1,0.1-0.2,0.1-0.2h0.2c0.2,0,0.3-0.1,0.3-0.3v-0.5C20.15,27.4,20.05,27.3,19.85,27.3z"/>
</g>
</svg>
