<svg version="1.1" id="Layer_1" xmlns="http://www.w3.org/2000/svg" x="0" y="0" viewBox="0 0 67 79" xml:space="preserve"><style>.st1{fill:#fff}</style><path d="M44.45 26.6c.1 0 0 0 0 0zm-.2.6v-.5.5zm-4.3-.8zm4.3.8z" fill="#7daed3"/><path class="st1" d="M35.75 23.1c.1.1.2.1.2.1 8.5-.3 13.3 2.9 13.7 4.2l3.4-.1 1.1-2.3c.1-.2 0-.5 0-.5-1-1.1-9.5-3.6-19.8-3.6-11 0-17.9 2.2-19.4 3.2 0 0-.4.2-.4.5 0 .1.2.6.2.6l.3.6c.1.2.2.2.4 0 0 0 .2-.1.2-.2s-.1-.4-.1-.4c-.2-.4.1-.5.1-.5l.6-.3c.3-.1.3.1.4.3 0 0 .1.3.2.4.2.1.7-.2 2.1-.6.1 0 .2 0 .4-.1.1-.1 0-.6 0-.6-.1-.2-.2-.5.4-.6l.9-.2c.4-.1.5.1.5.4 0 0 0 .4.1.5.1.2.3-.1 3.2-.4 0 0 .4 0 .5-.2s0-.5 0-.5c0-.3-.2-.6.5-.6l1.2-.1c.9-.2.8.2.8.5 0 0 0 .4.1.4.1.1.4.1.4.1 1.6-.2 2.5-.2 4.2-.2 0 0 .2 0 .3-.1s.1-.2.1-.2c0-.2 0-.5.1-.6s.4-.1.6-.1h1.4c.2 0 .7-.1.8.1.1.1.1.7.1.7s.2.3.2.4z"/><path class="st1" d="M34.35 9.4c-8.3 0-13.3 2.7-16.6 5.8l-.1.1c-.1.2-.1.4.3.3 7.1-3 14.8-1.1 17.3 1.7.1.1 0 .2-.1.2-2.5 0-4.6-.1-9.2.5-2.5.4-4.7.7-6.6 1.2-3.1.8-5.3 1.8-6.5 2.6-.4.2-.5.4-.6.6-.1.4-.1.4-.2.7-.2.5-.2.8-.3 1-.1.3.3.2.5 0 .4-.4 1.4-1.3 2.9-2s4-1.5 6.8-2c3.6-.7 8.1-1.1 12.1-1.1 4.7 0 8.9.5 12.4 1.2 3.6.7 6.4 1.7 8.2 2.6.9.4 1.3.8 1.9 1.3.5.5.5.1.5-.1 0 0-.1-.6-.8-2-2.4-4.3-8.6-12.6-21.9-12.6m.5 61.2c-16.4 0-24.6-3.8-24.6-6v-2.1s0-.1.1-.1h.1c7.1 5.4 23.9 6.1 31.2 3.7.2-.1.3-.2.3-.2l-.1-.1c-.2-.1-.3-.1-.5 0h-.3c-11.5 1.2-23.6-1.1-27.7-4l-.1-.1v-2.5c0-.1 0-.1.1-.1h.1c.5.5 2.6 1.5 6.6 2.3 3 .6 7.9 1.4 14.4 1.4 9.8 0 18-1.8 20.2-3 .5-.3.8-.5.8-.6s.1-.1.1-.1c.1 0 .1.1.1.1l.1 1.5c2.5 0 3.4.1 3.5.7v.2l.1 2.9c.1 2.2-8.6 6.1-24.5 6.1z"/><path class="st1" d="M44.55 25.4h-4.5c-.2 0-.3.1-.3.3v.5c0 .2.1.3.3.3h1.4c.1 0 .2.1.2.1.1.1-.2.3-.3.3l-.7.4c-.1.1-.2.2-.2.4V60c.1.6 1 .6 2 .6.8 0 1.8 0 1.9-.6V26.6c0-.1.1-.2.1-.2h.2c.2 0 .3-.1.3-.3v-.5c-.1-.1-.2-.2-.4-.2zm-10 33.5c-1.4 0-2.8 0-2.9-.1-.2-.1-.2-.9-.1-1.5 0 0 0-.1.1-.1l.5-.2v-6.3c.1-.2.2-.3.3-.3.4-.3 1.3-.9 1.8-1.2.1 0 .1-.1.1-.1V49c0-.1-.2-.1-.3-.1h-1.5s-.2 0-.4-.1c-.1 0-.2-.1-.2-.1l-.4-.9h-.4v-.3c0-.1.1-.1.1-.1h6.3c.1 0 .1.1.1.1v.3h-.3l-.6 1.2v8l.5.2.1.1c.1.9.1 1.4-.1 1.5-.1 0-1.4.1-2.7.1zm18.8-31.7h-4.5c-.2 0-.3.1-.3.3v.5c0 .2.1.3.3.3h1.4c.1 0 .2.1.2.1.1.1-.2.3-.3.3l-.7.4c-.1.1-.2.2-.2.4v29.2c.1.6 1 .6 2 .6.8 0 1.8 0 1.9-.6V28.4c0-.1.1-.2.1-.2h.2c.2 0 .3-.1.3-.3v-.5c-.1-.1-.2-.2-.4-.2zm-24.7-1.8h-4.5c-.2 0-.3.1-.3.3v.5c0 .2.1.3.3.3h1.4c.1 0 .2.1.2.1.1.1-.2.3-.3.3l-.7.4c-.1.1-.2.2-.2.4V60c.1.6 1 .6 2 .6.8 0 1.8 0 1.9-.6V26.6c0-.1.1-.2.1-.2h.2c.2 0 .3-.1.3-.3v-.5c-.1-.1-.2-.2-.4-.2zm-8.8 1.9h-4.5c-.2 0-.3.1-.3.3v.5c0 .2.1.3.3.3h1.4c.1 0 .2.1.2.1.1.1-.2.3-.3.3l-.7.4c-.1.1-.2.2-.2.4v29.2c.1.6 1 .6 2 .6.8 0 1.8-.1 1.9-.6V28.5c0-.1.1-.2.1-.2h.2c.2 0 .3-.1.3-.3v-.5c-.1-.1-.2-.2-.4-.2z"/></svg>